<svg xmlns="http://www.w3.org/2000/svg" version="1.1" xmlns:xlink="http://www.w3.org/1999/xlink"
	xmlns:svgjs="http://svgjs.com/svgjs" width="512" height="512" x="0" y="0" viewBox="0 0 343.089 343.089"
	style="enable-background:new 0 0 512 512" xml:space="preserve" class="">
	<g>
		<g xmlns="http://www.w3.org/2000/svg">
			<path
				d="M276.034,99.628L176.769,2.452c-2.397-2.885-6.679-3.281-9.564-0.885c-0.321,0.267-0.618,0.563-0.885,0.885     L67.055,99.628c-3.174,2.942-3.362,7.901-0.42,11.075c1.459,1.574,3.499,2.481,5.645,2.509h47.02v125.91     c0.892,5.262,5.148,9.305,10.449,9.927h83.592c4.18,0,5.224-5.224,5.224-9.927v-125.91h52.245     c4.328-0.057,7.79-3.611,7.733-7.939C278.515,103.127,277.608,101.087,276.034,99.628z"
				fill="#ffffff" data-original="#000000" class=""></path>
			<path
				d="M213.34,264.722h-83.592c-4.328,0-7.837,3.509-7.837,7.837s3.509,7.837,7.837,7.837h83.592     c4.328,0,7.837-3.509,7.837-7.837S217.669,264.722,213.34,264.722z"
				fill="#ffffff" data-original="#000000" class=""></path>
			<path
				d="M213.34,296.069h-83.592c-4.328,0-7.837,3.509-7.837,7.837s3.509,7.837,7.837,7.837h83.592     c4.328,0,7.837-3.509,7.837-7.837S217.669,296.069,213.34,296.069z"
				fill="#ffffff" data-original="#000000" class=""></path>
		</g>
	</g>
</svg>