<svg xmlns="http://www.w3.org/2000/svg" version="1.1" xmlns:xlink="http://www.w3.org/1999/xlink"
	xmlns:svgjs="http://svgjs.com/svgjs" width="512" height="512" x="0" y="0" viewBox="0 0 512 512"
	style="enable-background:new 0 0 512 512" xml:space="preserve" class="">
	<g xmlns="http://www.w3.org/2000/svg">
		<g>
			<g>
				<path
					d="M256,0C114.616,0,0,114.616,0,256s114.616,256,256,256c141.394,0,256-114.616,256-256S397.394,0,256,0z M256,460.8     c-112.927,0-204.8-91.873-204.8-204.8S143.073,51.2,256,51.2S460.8,143.073,460.8,256S368.927,460.8,256,460.8z"
					fill="#ffffff" data-original="#000000"></path>
				<path
					d="M349.112,238.08l-124.15-71.68c-17.07-9.851-31.037-1.792-31.037,17.92v143.36c0,19.712,13.967,27.781,31.037,17.92     l124.15-71.68C366.182,264.069,366.182,247.931,349.112,238.08z"
					fill="#ffffff" data-original="#000000"></path>
			</g>
		</g>
	</g>
</svg>