<svg xmlns="http://www.w3.org/2000/svg" version="1.1" xmlns:xlink="http://www.w3.org/1999/xlink"
	xmlns:svgjs="http://svgjs.com/svgjs" width="512" height="512" x="0" y="0" viewBox="0 0 447.976 447.976"
	style="enable-background:new 0 0 512 512" xml:space="preserve" class="" transform="scale(-1,1)">
	<g>
		<g xmlns="http://www.w3.org/2000/svg">
			<g>
				<path
					d="M433.936,190.044l-128-128c-18.752-18.752-49.12-18.752-67.872,0c-18.752,18.72-18.752,49.152,0,67.872l94.048,94.08    l-94.048,94.048c-18.752,18.752-18.752,49.12,0,67.872c9.344,9.408,21.632,14.08,33.92,14.08c12.288,0,24.576-4.672,33.952-14.048    l128-128C452.656,239.196,452.656,208.796,433.936,190.044z"
					fill="#d8d8d8" data-original="#000000" class=""></path>
			</g>
		</g>
		<g xmlns="http://www.w3.org/2000/svg">
			<g>
				<path
					d="M209.936,190.044l-128-128c-18.752-18.752-49.12-18.752-67.872,0c-18.752,18.72-18.752,49.152,0,67.872l94.048,94.08    l-94.048,94.048c-18.752,18.752-18.752,49.12,0,67.872c9.344,9.408,21.632,14.08,33.92,14.08s24.576-4.672,33.952-14.048l128-128    C228.656,239.196,228.656,208.796,209.936,190.044z"
					fill="#d8d8d8" data-original="#000000" class=""></path>
			</g>
		</g>
	</g>
</svg>