<svg xmlns="http://www.w3.org/2000/svg" viewBox="0 0 40 40">
    <defs>
        <style>
            .cls-1 {
                fill: #d8d8d8;
            }

            .cls-2 {
                fill: none;
            }
        </style>
    </defs>
    <g id="Calque_2" data-name="Calque 2">
        <g id="Calque_1-2" data-name="Calque 1">
            <path class="cls-1"
                d="M10,30.85a.86.86,0,0,1-.59-.24,15,15,0,0,1,0-21.22.83.83,0,0,1,1.17,1.18,13.35,13.35,0,0,0,0,18.86A.83.83,0,0,1,10,30.85Z" />
            <path class="cls-1"
                d="M6.45,34.38a.84.84,0,0,1-.59-.24,20,20,0,0,1,0-28.28A.85.85,0,0,1,7,5.86.83.83,0,0,1,7,7,18.32,18.32,0,0,0,7,33a.83.83,0,0,1,0,1.18A.84.84,0,0,1,6.45,34.38Z" />
            <path class="cls-1"
                d="M33.55,34.38a.84.84,0,0,1-.59-.24A.83.83,0,0,1,33,33,18.32,18.32,0,0,0,33,7a.83.83,0,1,1,1.18-1.18,20,20,0,0,1,0,28.28A.84.84,0,0,1,33.55,34.38Z" />
            <path class="cls-1"
                d="M30,30.85a.83.83,0,0,1-.59-1.42,13.35,13.35,0,0,0,0-18.86.83.83,0,0,1,0-1.18.85.85,0,0,1,1.18,0,15,15,0,0,1,0,21.21A.79.79,0,0,1,30,30.85Z" />
            <path class="cls-1"
                d="M16,33.33a1,1,0,0,1-.37-.08.85.85,0,0,1-.43-1l2.92-10.61H12.5a.83.83,0,0,1-.74-.46.87.87,0,0,1,.07-.88L21.81,7a.82.82,0,0,1,1-.27.85.85,0,0,1,.5.91l-1.48,9H27.5a.84.84,0,0,1,.75.46.85.85,0,0,1-.09.88L16.61,33A.81.81,0,0,1,16,33.33Z" />
            <rect class="cls-2" width="40" height="40" />
        </g>
    </g>
</svg>