<svg xmlns="http://www.w3.org/2000/svg" version="1.1" xmlns:xlink="http://www.w3.org/1999/xlink"
    xmlns:svgjs="http://svgjs.com/svgjs" width="512" height="512" x="0" y="0" viewBox="0 0 512 512"
    style="enable-background:new 0 0 512 512" xml:space="preserve" class="">
    <g>
        <path xmlns="http://www.w3.org/2000/svg" clip-rule="evenodd"
            d="m254.645 206.866v269.571c0 4.707-3.851 8.539-8.553 8.539s-8.553-3.832-8.553-8.539v-269.571c0-4.707 3.851-8.538 8.553-8.538 4.701 0 8.553 3.831 8.553 8.538zm-191.816-137.85 379.83 87.282 5.852-25.423c3.201-14.003-5.552-28.028-19.557-31.249l-82.423-18.935 2.319-9.53c2.551-11.121.6-22.594-5.452-32.33-6.102-9.723-15.605-16.476-26.709-19.041l-81.378-18.696c-11.104-2.551-22.608-.606-32.311 5.486-9.753 6.082-16.506 15.56-19.057 26.679l-2.22 9.571-81.831-18.798c-14.005-3.216-28.01 5.559-31.211 19.573zm267.066 7.853-131.682-30.25 2.387-9.528c1.5-6.677 5.602-12.37 11.454-16.041s12.754-4.842 19.407-3.316l81.428 18.706c6.652 1.526 12.354 5.607 16.005 11.465 3.702 5.859 4.852 12.754 3.351 19.434zm-168.632 129.591 13.155 269.561c.25 4.707-3.401 8.71-8.103 8.945-.15 0-.3.01-.45.01-4.502 0-8.303-3.554-8.503-8.122l-13.154-269.571c-.2-4.707 3.401-8.71 8.103-8.944 4.7-.248 8.752 3.404 8.952 8.121zm-92.382-35.157 30.46 319.821c1.15 11.9 11.004 20.876 22.958 20.876h247.585c11.954 0 21.807-8.976 22.958-20.876l30.461-319.821zm248.885 304.718 13.154-269.561c.25-4.717 4.251-8.378 8.953-8.122 4.702.234 8.353 4.237 8.103 8.944l-13.155 269.571c-.2 4.568-4.001 8.122-8.502 8.122-.15 0-.3-.01-.45-.01-4.702-.234-8.303-4.238-8.103-8.944z"
            fill-rule="evenodd" fill="#ffffff" data-original="#000000" class=""></path>
    </g>
</svg>